<svg xmlns="http://www.w3.org/2000/svg" viewBox="0 0 1342 462" width="1342" height="462" role="img" aria-label="makra">
  <title>Makra</title>
  <desc>Dark grey Makra wordmark with three green macro bars with angled corners.</desc>
  <g id="wordmark" fill="#3C3C43" fill-rule="evenodd">
    <path id="letter-m" d="M367.65 331.65 L296.47 331.53 L294.58 195.42 C288.48 167.95 244.19 164.88 233.41 190.41 C229.44 199.8 231 214.65 231 225 L229.43 331.43 L156.47 331.53 L155 222 L152.83 190.17 C147.84 178.9 135.96 172.78 124 173 C112.56 173.22 100.67 180.59 96.41 191.41 C92.64 200.95 95 211.24 95 221 L94.02 265.98 C94.67 281.93 97.92 318.39 93.03 332.04 L21.35 331.65 L20 250 L21.05 165.05 L48.17 134.17 L68.46 113.46 L120 113 C148.88 113 173.03 109.64 197.17 128.83 L212 144.27 C237.89 117.82 249.97 109 289 109 C304.63 109 320.37 113.98 333.39 122.61 C380.26 153.66 369 208.81 369 258 L367.65 331.65 Z"/>
    <path id="letter-a-first" d="M569.12 139.05 L571.59 115.59 L644.65 115.35 L644.99 331.99 L571.35 331.65 L569.12 309.95 L538.99 330.99 C519.86 339.64 497.06 341.11 476.81 336.19 C369.44 310.1 359.06 157.63 461.3 116.3 C504.84 98.71 535.48 112.1 569.12 139.05 Z M568.4 227.4 C571.72 197.25 551.73 172.79 522.23 167.77 C491.1 163.3 467.12 183.39 461.24 213.24 C459.93 245.14 475.49 267.92 508 273 C538.59 277.39 562.51 256.49 568.4 227.4 Z"/>
    <path id="letter-k" d="M744.94 21.07 C748.62 28.36 747 47.63 747 57 L748.05 192.22 C760.65 180.8 811.47 118.37 820.65 115.65 L868 115 C876.28 115 899.78 113.85 905.19 117.71 C903.41 128.9 825.17 198.99 812.82 218.75 C825.13 237.1 900.68 320.33 901.43 331.43 C895.42 335.22 823.49 335.19 814.35 332.65 L748.05 251.78 L745.53 332.53 C737.33 335.08 680.16 335.19 672.92 332.08 C669.57 324.27 669.61 65.09 673.05 57.05 C680.36 51.02 738.35 20.54 744.94 21.07 Z"/>
    <path id="letter-r" d="M1078.46 115.54 C1078.47 122.41 1049.23 166.28 1042.87 173.87 C1029.92 176.83 1016.87 171.76 1005.03 179.03 C998.34 183.15 994.83 189.89 993.41 197.41 L993 303 L991.15 332.15 C983.75 335.15 926.25 335.15 918.85 332.15 C914.4 321.76 917 270.03 917 255 L917.73 164.73 L946.24 132.24 C951.37 126.54 958.24 115.68 965.64 113.64 L1020 113 C1031.1 113 1071.8 111.07 1078.46 115.54 Z"/>
    <path id="letter-a-last" d="M1241.12 140.05 L1243.59 115.59 C1251.35 112.9 1313.17 112.86 1320.15 115.85 C1323.07 123.05 1323.51 321.32 1320.31 331.31 C1312.62 334.21 1251.93 334.1 1243.35 331.65 L1241.12 308.95 C1208.17 335.34 1179.55 348.38 1136.12 333.88 C1033.59 299.64 1032.6 150.36 1135.12 116.12 C1176.91 102.17 1208.57 114.22 1241.12 140.05 Z M1239.4 228.4 C1242.74 198.07 1222.08 175.62 1193.4 169.6 C1162.41 166.19 1138.56 184.04 1132.41 214.41 C1130.14 245.72 1147.59 267.72 1178.24 273.76 C1210.29 275.07 1232.85 260.76 1239.4 228.4 Z"/>
  </g>
  <g id="macro-bars" fill="#12B488">
    <path d="M30 392 H568 L578 402 V432 L568 442 H30 L20 432 V402 Z"/>
    <path d="M636 392 H1036 L1046 402 V432 L1036 442 H636 L626 432 V402 Z"/>
    <path d="M1098 392 H1312 L1322 402 V432 L1312 442 H1098 L1088 432 V402 Z"/>
  </g>
</svg>
